<?xml version="1.0" encoding="utf-8"?>
<!-- Generator: Adobe Illustrator 18.0.0, SVG Export Plug-In . SVG Version: 6.00 Build 0)  -->
<!DOCTYPE svg PUBLIC "-//W3C//DTD SVG 1.1//EN" "http://www.w3.org/Graphics/SVG/1.1/DTD/svg11.dtd">
<svg version="1.1" id="Layer_1" xmlns="http://www.w3.org/2000/svg" xmlns:xlink="http://www.w3.org/1999/xlink" x="0px" y="0px"
	 viewBox="0 0 264.2 75.8" enable-background="new 0 0 264.2 75.8" xml:space="preserve">
<g>
	<g>
		<g>
			<path fill="#FFFFFF" d="M35.9,29.7v23.2h-9.2V28.9c0-3.4-0.7-7-9.1-7c-2.6,0-5.1,0.3-7.2,0.7v30.3H1.2V18
				c0.3-0.2,7.9-4.2,17.7-4.2C29.6,13.7,35.9,19.7,35.9,29.7z"/>
			<path fill="#FFFFFF" d="M75.3,14.3v21.1c0,11.3-6.5,18.1-17.4,18.1c-10.9,0-17.4-6.7-17.4-18.1V14.3h9.3v22.3
				c0,6.2,2.3,8.7,8,8.7c5.8,0,8.1-2.5,8.1-8.7V14.3H75.3z"/>
			<path fill="#FFFFFF" d="M120.3,1.4v51.5H111V31.5H89.2v21.4h-9.3V1.4h9.3v21.4H111V1.4H120.3z"/>
			<path fill="#FFFFFF" d="M161.4,33.6c0,12.8-6.5,19.8-18.2,19.8c-11.7,0-18.2-7-18.2-19.8c0-12.8,6.5-19.8,18.2-19.8
				C154.9,13.8,161.4,20.8,161.4,33.6z M152.1,33.6c0-10.2-3.5-12.2-9-12.2s-9,2-9,12.2c0,10.2,3.5,12.2,9,12.2
				S152.1,43.8,152.1,33.6z"/>
			<path fill="#FFFFFF" d="M223.8,29.7v23.2h-9.3V29.1c0-4.5-1.5-7.5-8.8-7.5c-2.9,0-5.6,0.4-7.9,0.9c0,0,1.6,1.9,1.6,7.2v23.2h-9.2
				v-24c0-4.2-1.5-7.1-8.6-7.1c-2.3,0-4.5,0.2-6.4,0.6v30.5H166V18c0.3-0.2,7.6-4.3,17-4.3c4.2,0,7.7,1,10.4,2.9
				c3.1-1.2,8-2.9,13.9-2.9C217.6,13.7,223.8,19.7,223.8,29.7z"/>
			<path fill="#FFFFFF" d="M260.8,42.5V50c-3.5,1.9-8.3,3.5-14.5,3.5c-7.6,0-17.9-3.1-17.9-19.4c0-11.5,4.6-20.4,17.2-20.4
				c12,0,17.2,9,17.2,18.7c0,1.7,0,3.2-0.2,4.8h-24.8c0.5,7.4,5.3,8.4,9.8,8.4C253.2,45.5,257.6,44,260.8,42.5z M237.9,30.7h15.5
				c-0.5-4.9-2.9-9.5-7.8-9.5C241.1,21.2,238.5,23.8,237.9,30.7z"/>
		</g>
	</g>
	<g>
		<path fill="#FFFFFF" d="M16.7,68.2c-0.1,0.3-0.2,0.6-0.3,0.8c-0.1,0.2-0.3,0.4-0.5,0.6c-0.2,0.2-0.4,0.3-0.6,0.4
			c-0.5,0.2-1,0.4-1.5,0.4h-2.8v3.1H8.5v-11h5.3c0.6,0,1.1,0.2,1.5,0.4c0.4,0.2,0.7,0.5,1,1c0.3,0.4,0.5,1.1,0.5,1.9v1.4
			C16.8,67.5,16.8,67.9,16.7,68.2z M14.4,65.8c0-0.2-0.1-0.3-0.1-0.5c-0.1-0.1-0.2-0.2-0.3-0.4c-0.1-0.1-0.3-0.2-0.6-0.2h-2.5v3.3
			h2.5c0.2,0,0.4-0.1,0.6-0.2c0.1-0.1,0.2-0.2,0.3-0.3c0.1-0.1,0.1-0.3,0.1-0.5V65.8z"/>
		<path fill="#FFFFFF" d="M41.9,73.9l-3.3-4.1h-0.9v3.7h-2.4v-11h5.3c0.6,0,1.1,0.2,1.5,0.4c0.4,0.2,0.7,0.5,1,1
			c0.3,0.4,0.5,1.1,0.5,1.9v0.8c0,0.6-0.1,1-0.2,1.4c-0.1,0.4-0.3,0.7-0.5,0.9c-0.2,0.2-0.4,0.4-0.7,0.5c-0.3,0.1-0.5,0.2-0.7,0.3
			c0.4,0.5,0.8,1.1,1.2,1.6c0.4,0.6,0.8,1.1,1.2,1.6L41.9,73.9z M41.2,65.8c0-0.2-0.1-0.3-0.1-0.5c-0.1-0.1-0.2-0.2-0.3-0.4
			c-0.1-0.1-0.3-0.2-0.6-0.2h-2.5v2.7h2.5c0.2,0,0.4,0,0.6-0.1c0.1-0.1,0.2-0.2,0.3-0.3c0.1-0.1,0.1-0.3,0.1-0.5V65.8z"/>
		<path fill="#FFFFFF" d="M70.1,72.2c-0.1,0.2-0.3,0.4-0.5,0.5c-0.2,0.2-0.5,0.3-0.8,0.5c-0.3,0.1-0.7,0.2-1.1,0.3
			c-0.4,0.1-0.9,0.1-1.4,0.1c-1.1,0-1.9-0.1-2.5-0.4c-0.6-0.3-1-0.6-1.3-0.9c-0.3-0.3-0.4-0.7-0.5-1c0-0.3-0.1-0.6-0.1-0.7v-5.4
			c0-0.1,0-0.3,0.1-0.7c0.1-0.3,0.2-0.7,0.5-1c0.3-0.3,0.7-0.6,1.3-0.9c0.6-0.3,1.4-0.4,2.4-0.4c1.1,0,1.9,0.1,2.5,0.4
			c0.6,0.3,1,0.6,1.3,0.9c0.3,0.3,0.4,0.7,0.5,1c0,0.3,0.1,0.6,0.1,0.7v5.4C70.6,71.2,70.4,71.7,70.1,72.2z M68.2,65.7
			c0-0.1,0-0.1,0-0.3c0-0.1-0.1-0.3-0.2-0.4c-0.1-0.1-0.3-0.2-0.5-0.3c-0.2-0.1-0.6-0.1-1-0.1c-0.4,0-0.8,0-1,0.1
			c-0.2,0.1-0.4,0.2-0.5,0.3c-0.1,0.1-0.2,0.3-0.2,0.4c0,0.1,0,0.2,0,0.3v4.7c0,0.1,0,0.2,0,0.3c0,0.1,0.1,0.2,0.2,0.4
			c0.1,0.1,0.3,0.2,0.5,0.3c0.2,0.1,0.6,0.1,1,0.1c0.4,0,0.8,0,1-0.1c0.2-0.1,0.4-0.2,0.5-0.3c0.1-0.1,0.2-0.2,0.2-0.4
			c0-0.1,0-0.2,0-0.3V65.7z"/>
		<path fill="#FFFFFF" d="M99.8,64.7v8.7h-2.4V68l-2.8,4l-2.8-4v5.4h-2.4v-8.7l-0.3-1.9l1.9-0.6l3.6,5.7l3.6-5.7l1.9,0.6L99.8,64.7z
			"/>
		<path fill="#FFFFFF" d="M126.6,72.2c-0.1,0.2-0.3,0.4-0.5,0.5c-0.2,0.2-0.5,0.3-0.8,0.5c-0.3,0.1-0.7,0.2-1.1,0.3
			c-0.4,0.1-0.9,0.1-1.4,0.1c-1.1,0-1.9-0.1-2.5-0.4c-0.6-0.3-1-0.6-1.3-0.9c-0.3-0.3-0.4-0.7-0.5-1c0-0.3-0.1-0.6-0.1-0.7v-5.4
			c0-0.1,0-0.3,0.1-0.7c0.1-0.3,0.2-0.7,0.5-1c0.3-0.3,0.7-0.6,1.3-0.9c0.6-0.3,1.4-0.4,2.4-0.4c1.1,0,1.9,0.1,2.5,0.4
			c0.6,0.3,1,0.6,1.3,0.9c0.3,0.3,0.4,0.7,0.5,1c0,0.3,0.1,0.6,0.1,0.7v5.4C127.1,71.2,126.9,71.7,126.6,72.2z M124.7,65.7
			c0-0.1,0-0.1,0-0.3c0-0.1-0.1-0.3-0.2-0.4c-0.1-0.1-0.3-0.2-0.5-0.3c-0.2-0.1-0.6-0.1-1-0.1c-0.4,0-0.8,0-1,0.1
			c-0.2,0.1-0.4,0.2-0.5,0.3c-0.1,0.1-0.2,0.3-0.2,0.4s0,0.2,0,0.3v4.7c0,0.1,0,0.2,0,0.3s0.1,0.2,0.2,0.4c0.1,0.1,0.3,0.2,0.5,0.3
			c0.2,0.1,0.6,0.1,1,0.1c0.4,0,0.8,0,1-0.1c0.2-0.1,0.4-0.2,0.5-0.3c0.1-0.1,0.2-0.2,0.2-0.4c0-0.1,0-0.2,0-0.3V65.7z"/>
		<path fill="#FFFFFF" d="M150.8,64.7v6l1,2.3l-1.9,0.8l-1.5-2.3v-6.8h-2.8v-2.2h7.9v2.2H150.8z"/>
		<path fill="#FFFFFF" d="M172,73.4v-11h2.4v11H172z"/>
		<path fill="#FFFFFF" d="M201,72.2c-0.1,0.2-0.3,0.4-0.5,0.5c-0.2,0.2-0.5,0.3-0.8,0.5c-0.3,0.1-0.7,0.2-1.1,0.3
			c-0.4,0.1-0.9,0.1-1.4,0.1c-1.1,0-1.9-0.1-2.5-0.4c-0.6-0.3-1-0.6-1.3-0.9c-0.3-0.3-0.4-0.7-0.5-1c0-0.3-0.1-0.6-0.1-0.7v-5.4
			c0-0.1,0-0.3,0.1-0.7c0.1-0.3,0.2-0.7,0.5-1c0.3-0.3,0.7-0.6,1.3-0.9c0.6-0.3,1.4-0.4,2.4-0.4c1.1,0,1.9,0.1,2.5,0.4
			c0.6,0.3,1,0.6,1.3,0.9c0.3,0.3,0.4,0.7,0.5,1c0,0.3,0.1,0.6,0.1,0.7v5.4C201.5,71.2,201.3,71.7,201,72.2z M199.1,65.7
			c0-0.1,0-0.1,0-0.3c0-0.1-0.1-0.3-0.2-0.4c-0.1-0.1-0.3-0.2-0.5-0.3c-0.2-0.1-0.6-0.1-1-0.1c-0.4,0-0.8,0-1,0.1
			c-0.2,0.1-0.4,0.2-0.5,0.3c-0.1,0.1-0.2,0.3-0.2,0.4c0,0.1,0,0.2,0,0.3v4.7c0,0.1,0,0.2,0,0.3c0,0.1,0.1,0.2,0.2,0.4
			c0.1,0.1,0.3,0.2,0.5,0.3c0.2,0.1,0.6,0.1,1,0.1c0.4,0,0.8,0,1-0.1c0.2-0.1,0.4-0.2,0.5-0.3c0.1-0.1,0.2-0.2,0.2-0.4
			c0-0.1,0-0.2,0-0.3V65.7z"/>
		<path fill="#FFFFFF" d="M226.4,73.4l-3.6-5.4v5.4h-2.4v-8.7l-0.3-2l1.8-0.6l4.3,6.8v-6.5h2.4v10.9H226.4z"/>
		<path fill="#FFFFFF" d="M255.3,71.5c-0.1,0.4-0.4,0.8-0.7,1.1c-0.3,0.3-0.7,0.6-1.3,0.7c-0.5,0.2-1.2,0.3-2,0.3
			c-0.3,0-0.7,0-1.1-0.1c-0.4-0.1-0.8-0.2-1.1-0.4c-0.4-0.2-0.7-0.4-1.1-0.6c-0.3-0.2-0.6-0.5-0.9-0.8l1-2c0.2,0.2,0.4,0.5,0.7,0.7
			c0.3,0.2,0.6,0.4,0.9,0.5c0.3,0.1,0.6,0.3,0.9,0.4c0.3,0.1,0.5,0.1,0.7,0.1c0.4,0,0.7,0,0.9-0.1c0.2-0.1,0.4-0.2,0.5-0.3
			c0.1-0.1,0.2-0.2,0.2-0.4c0-0.2,0.1-0.3,0.1-0.5v-0.4c0-0.1,0-0.2-0.1-0.3c-0.1-0.1-0.1-0.1-0.2-0.2c-0.1-0.1-0.2-0.1-0.3-0.1
			l-2.4-0.6c-0.7-0.2-1.2-0.4-1.5-0.7c-0.4-0.3-0.7-0.6-0.8-0.9c-0.2-0.4-0.4-0.8-0.4-1.2v-0.4c0-0.7,0.1-1.3,0.4-1.7
			c0.2-0.4,0.5-0.7,0.9-0.9c0.3-0.2,0.7-0.3,1-0.4c0.3,0,0.6-0.1,0.8-0.1c0.7,0,1.4,0.1,2,0.2c0.6,0.1,1.1,0.3,1.6,0.4
			c0.5,0.2,1,0.4,1.4,0.6l-0.9,1.9c-0.9-0.4-1.6-0.7-2.2-0.8c-0.6-0.1-1.1-0.2-1.3-0.2c-0.5,0-0.8,0.1-0.9,0.2
			c-0.1,0.2-0.2,0.4-0.2,0.6v0.4c0,0.2,0.1,0.3,0.3,0.4c0.1,0.1,0.2,0.1,0.3,0.1l2.4,0.6c0.7,0.2,1.2,0.4,1.6,0.6
			c0.4,0.3,0.7,0.5,0.8,0.8c0.2,0.3,0.3,0.5,0.3,0.8c0,0.3,0.1,0.5,0.1,0.7v0.4C255.5,70.6,255.4,71.1,255.3,71.5z"/>
	</g>
</g>
</svg>
